<svg xmlns="http://www.w3.org/2000/svg" width="120" height="39.999"><path data-name="Path 2957" d="M8.577 39.999c-.313 0-.618 0-.928-.011a13.807 13.807 0 01-2.023-.177 6.9 6.9 0 01-1.935-.637 6.41 6.41 0 01-1.653-1.194 6.279 6.279 0 01-1.2-1.64 6.623 6.623 0 01-.639-1.931 12.963 12.963 0 01-.184-2.01c-.007-.208-.016-.921-.016-.921V8.52c0-.013.01-.713.016-.921a13.027 13.027 0 01.184-2.008 6.694 6.694 0 01.635-1.929 6.345 6.345 0 011.2-1.644A6.585 6.585 0 013.688.825 6.849 6.849 0 015.626.19 13.636 13.636 0 017.648.013l.915-.014h102.854l.927.013a13.429 13.429 0 012.024.177 6.992 6.992 0 011.941.633 6.6 6.6 0 012.858 2.838 6.691 6.691 0 01.633 1.93 13.721 13.721 0 01.188 2.009v.92c.008.358.008.72.008 1.084v20.796c0 .368 0 .727-.008 1.089v.914a13.763 13.763 0 01-.188 2.012 6.636 6.636 0 01-.634 1.932 6.617 6.617 0 01-2.855 2.829 6.891 6.891 0 01-1.945.638 13.442 13.442 0 01-2.019.177c-.305.007-.619.011-.925.011h-1.083z" fill="#b6b6b6"/><path data-name="Path 2958" d="M8.577 38.999c-.305 0-.6 0-.905-.011a12.635 12.635 0 01-1.873-.164 5.906 5.906 0 01-1.658-.544 5.4 5.4 0 01-1.4-1.01 5.279 5.279 0 01-1.021-1.387 5.66 5.66 0 01-.543-1.646 12.254 12.254 0 01-.167-1.863l-.011-.907V8.519s.008-.687.014-.888a12.2 12.2 0 01.166-1.86 5.664 5.664 0 01.544-1.651 5.348 5.348 0 011.016-1.389 5.576 5.576 0 011.4-1.016 5.85 5.85 0 011.66-.54 12.65 12.65 0 011.877-.163l.901-.013h102.84l.914.013a12.359 12.359 0 011.859.161 6 6 0 011.673.544 5.58 5.58 0 012.416 2.4 5.709 5.709 0 01.536 1.638 12.936 12.936 0 01.174 1.875v.884c.008.373.008.727.008 1.085v20.8c0 .361 0 .713-.008 1.068v.924a12.673 12.673 0 01-.171 1.841 5.682 5.682 0 01-.541 1.659 5.625 5.625 0 01-2.416 2.392 5.871 5.871 0 01-1.67.546 12.477 12.477 0 01-1.87.162c-.293.007-.6.011-.9.011h-1.085z"/><g data-name="Group 1116"><g data-name="Group 1114"><g data-name="Group 1113" fill="#fff"><path data-name="Path 2959" d="M24.837 20.299a4.945 4.945 0 012.362-4.151 5.086 5.086 0 00-4-2.158c-1.685-.176-3.317 1.009-4.175 1.009-.875 0-2.2-.988-3.619-.958a5.329 5.329 0 00-4.485 2.727c-1.94 3.349-.493 8.27 1.365 10.977.929 1.325 2.015 2.805 3.437 2.753 1.391-.058 1.91-.885 3.589-.885 1.664 0 2.151.885 3.6.852 1.493-.025 2.433-1.332 3.33-2.67a10.955 10.955 0 001.524-3.096 4.785 4.785 0 01-2.928-4.4z"/><path data-name="Path 2960" d="M22.099 12.21a4.863 4.863 0 001.117-3.491 4.98 4.98 0 00-3.217 1.66 4.631 4.631 0 00-1.147 3.361 4.116 4.116 0 003.247-1.53z"/></g></g><g data-name="Group 1115" fill="#fff"><path data-name="Path 2961" d="M42.42 27.139h-4.747l-1.14 3.36h-2.01l4.5-12.418h2.089l4.487 12.418h-2.04zm-4.255-1.549h3.762l-1.854-5.447h-.052z"/><path data-name="Path 2962" d="M55.314 25.969c0 2.813-1.511 4.621-3.789 4.621a3.08 3.08 0 01-2.857-1.584h-.043v4.484h-1.864V21.441h1.8v1.506h.038a3.224 3.224 0 012.891-1.6c2.309 0 3.824 1.816 3.824 4.622zm-1.916 0c0-1.833-.95-3.038-2.4-3.038-1.424 0-2.382 1.23-2.382 3.038 0 1.824.958 3.046 2.382 3.046 1.45 0 2.401-1.197 2.401-3.046z"/><path data-name="Path 2963" d="M65.306 25.969c0 2.813-1.51 4.621-3.789 4.621a3.078 3.078 0 01-2.856-1.584h-.043v4.484h-1.864V21.441h1.8v1.506h.034a3.224 3.224 0 012.891-1.6c2.308 0 3.827 1.816 3.827 4.622zm-1.915 0c0-1.833-.95-3.038-2.4-3.038-1.424 0-2.382 1.23-2.382 3.038 0 1.824.958 3.046 2.382 3.046 1.45 0 2.4-1.197 2.4-3.046z"/><path data-name="Path 2964" d="M71.911 27.035c.138 1.232 1.338 2.04 2.977 2.04 1.571 0 2.7-.808 2.7-1.919 0-.964-.682-1.541-2.3-1.936l-1.614-.388c-2.286-.551-3.348-1.617-3.348-3.348 0-2.142 1.873-3.614 4.531-3.614 2.632 0 4.436 1.472 4.5 3.614h-1.88c-.112-1.239-1.14-1.987-2.641-1.987s-2.529.757-2.529 1.858c0 .878.657 1.395 2.262 1.79l1.372.336c2.555.6 3.616 1.626 3.616 3.443 0 2.323-1.856 3.778-4.807 3.778-2.762 0-4.626-1.421-4.747-3.667z"/><path data-name="Path 2965" d="M83.579 19.299v2.142h1.727v1.472h-1.727v4.991c0 .776.346 1.137 1.1 1.137a5.742 5.742 0 00.62-.042v1.463a5.116 5.116 0 01-1.035.086c-1.838 0-2.555-.689-2.555-2.444v-5.19h-1.32v-1.473h1.32v-2.142z"/><path data-name="Path 2966" d="M86.306 25.969c0-2.849 1.682-4.639 4.306-4.639s4.307 1.79 4.307 4.639-1.666 4.638-4.307 4.638-4.306-1.782-4.306-4.638zm6.714 0c0-1.954-.9-3.108-2.408-3.108s-2.408 1.162-2.408 3.108c0 1.962.9 3.106 2.408 3.106s2.408-1.144 2.408-3.106z"/><path data-name="Path 2967" d="M96.455 21.441h1.778v1.541h.043a2.164 2.164 0 012.183-1.635 2.9 2.9 0 01.639.069v1.738a2.629 2.629 0 00-.837-.112 1.875 1.875 0 00-1.942 2.083v5.374h-1.864z"/><path data-name="Path 2968" d="M109.69 27.836c-.25 1.643-1.855 2.771-3.909 2.771-2.641 0-4.281-1.764-4.281-4.595s1.649-4.682 4.2-4.682c2.512 0 4.091 1.721 4.091 4.466v.637h-6.412v.112a2.36 2.36 0 002.442 2.564 2.055 2.055 0 002.1-1.273zm-6.3-2.7h4.539a2.181 2.181 0 00-2.227-2.3 2.3 2.3 0 00-2.311 2.298z"/></g></g><g data-name="Group 1118"><g data-name="Group 1117" fill="#fff"><path data-name="Path 2969" d="M37.931 8.73a2.643 2.643 0 012.816 2.969c0 1.906-1.033 3-2.816 3H35.77V8.73zm-1.232 5.123h1.129a1.878 1.878 0 001.971-2.146 1.884 1.884 0 00-1.973-2.134h-1.127z"/><path data-name="Path 2970" d="M41.799 12.443a2.139 2.139 0 114.259 0 2.139 2.139 0 11-4.259 0zm3.342 0c0-.976-.44-1.547-1.211-1.547s-1.211.571-1.211 1.547.436 1.551 1.211 1.551 1.209-.571 1.209-1.551z"/><path data-name="Path 2971" d="M51.717 14.699h-.924l-.934-3.317h-.07l-.93 3.317h-.915l-1.245-4.5h.9l.809 3.436h.066l.929-3.436h.855l.928 3.436h.071l.805-3.436h.891z"/><path data-name="Path 2972" d="M54.004 10.194h.858v.715h.066a1.354 1.354 0 011.348-.8 1.467 1.467 0 011.563 1.675v2.915h-.891v-2.694c0-.724-.316-1.084-.975-1.084a1.034 1.034 0 00-1.074 1.141v2.637h-.891z"/><path data-name="Path 2973" d="M59.259 8.436h.891v6.263h-.891z"/><path data-name="Path 2974" d="M61.389 12.443a2.139 2.139 0 114.259 0 2.139 2.139 0 11-4.259 0zm3.342 0c0-.976-.44-1.547-1.211-1.547s-1.211.571-1.211 1.547.436 1.551 1.211 1.551 1.211-.571 1.211-1.551z"/><path data-name="Path 2975" d="M66.586 13.423c0-.81.606-1.278 1.68-1.344l1.223-.07v-.389c0-.475-.315-.744-.925-.744-.5 0-.842.182-.941.5h-.862c.091-.773.82-1.269 1.845-1.269 1.132 0 1.77.562 1.77 1.513v3.079h-.858v-.633h-.07a1.52 1.52 0 01-1.357.707 1.363 1.363 0 01-1.505-1.35zm2.9-.384v-.377l-1.1.07c-.622.042-.9.253-.9.65s.353.641.838.641a1.063 1.063 0 001.165-.984z"/><path data-name="Path 2976" d="M71.547 12.443c0-1.423.734-2.324 1.875-2.324a1.49 1.49 0 011.385.79h.066V8.436h.891v6.263h-.854v-.712h-.07a1.566 1.566 0 01-1.418.786c-1.149-.002-1.875-.903-1.875-2.33zm.921 0c0 .955.451 1.53 1.207 1.53s1.215-.583 1.215-1.526-.469-1.53-1.215-1.53-1.207.582-1.207 1.526z"/><path data-name="Path 2977" d="M79.451 12.443a2.139 2.139 0 114.259 0 2.139 2.139 0 11-4.259 0zm3.343 0c0-.976-.44-1.547-1.212-1.547s-1.21.571-1.21 1.547.436 1.551 1.21 1.551 1.212-.571 1.212-1.551z"/><path data-name="Path 2978" d="M84.906 10.194h.858v.715h.067a1.351 1.351 0 011.347-.8 1.466 1.466 0 011.563 1.675v2.915h-.891v-2.694c0-.724-.315-1.084-.974-1.084a1.035 1.035 0 00-1.077 1.141v2.637h-.891z"/><path data-name="Path 2979" d="M93.777 9.073v1.141h.978v.749h-.978v2.315c0 .472.195.679.638.679a3.027 3.027 0 00.34-.021v.74a2.864 2.864 0 01-.485.046c-.991 0-1.385-.348-1.385-1.216v-2.543h-.717v-.749h.717V9.073z"/><path data-name="Path 2980" d="M95.972 8.436h.884v2.481h.07a1.39 1.39 0 011.377-.806 1.485 1.485 0 011.555 1.679v2.909h-.892v-2.69c0-.719-.336-1.084-.966-1.084a1.054 1.054 0 00-1.137 1.142v2.632h-.891z"/><path data-name="Path 2981" d="M105.054 13.481a1.832 1.832 0 01-1.956 1.3 2.048 2.048 0 01-2.086-2.325 2.079 2.079 0 012.082-2.352c1.256 0 2.014.856 2.014 2.27v.31h-3.188v.05a1.191 1.191 0 001.2 1.29 1.083 1.083 0 001.074-.546zm-3.134-1.451h2.28a1.088 1.088 0 00-1.111-1.167 1.154 1.154 0 00-1.169 1.167z"/></g></g></svg>