<svg xmlns="http://www.w3.org/2000/svg" width="136.097" height="40"><defs><linearGradient id="a" x1=".807" y1=".5" x2="-1.573" y2=".5" gradientUnits="objectBoundingBox"><stop offset="0" stop-color="#ffdf00"/><stop offset=".409" stop-color="#fbbc0e"/><stop offset=".775" stop-color="#f8a318"/><stop offset="1" stop-color="#f89b1c"/></linearGradient><linearGradient id="b" x1=".862" y1=".178" x2="-.501" y2="1.948" gradientUnits="objectBoundingBox"><stop offset="0" stop-color="#ee4447"/><stop offset="1" stop-color="#c5166c"/></linearGradient><linearGradient id="c" x1="-.507" y1="-.956" x2=".606" y2=".489" gradientUnits="objectBoundingBox"><stop offset="0" stop-color="#269e6f"/><stop offset=".051" stop-color="#2ba06e"/><stop offset=".466" stop-color="#52b26a"/><stop offset=".797" stop-color="#6bbc68"/><stop offset="1" stop-color="#74c168"/></linearGradient></defs><rect data-name="Rectangle 1905" width="135" height="40" rx="5" transform="translate(1.097)"/><g data-name="Group 1121"><g data-name="Group 1120"><path data-name="Path 2982" d="M130 .8a4.2 4.2 0 014.2 4.2v30a4.2 4.2 0 01-4.2 4.2H5A4.2 4.2 0 01.8 35V5A4.2 4.2 0 015 .8h125m0-.8H5a5.015 5.015 0 00-5 5v30a5.015 5.015 0 005 5h125a5.015 5.015 0 005-5V5a5.015 5.015 0 00-5-5z" fill="#a6a5a5"/></g></g><g data-name="Group 1122" fill="#fff" stroke="#fff" stroke-miterlimit="10" stroke-width=".2"><path data-name="Path 2983" d="M47.418 10.243a2.707 2.707 0 01-.745 2 2.908 2.908 0 01-2.2.888A3.089 3.089 0 0141.352 10a3.091 3.091 0 013.117-3.134 3.106 3.106 0 011.232.251 2.468 2.468 0 01.938.671l-.527.528a2.027 2.027 0 00-1.643-.716 2.32 2.32 0 00-2.33 2.4 2.359 2.359 0 004.006 1.727 1.89 1.89 0 00.5-1.216h-2.176v-.72h2.907a2.47 2.47 0 01.042.452z"/><path data-name="Path 2984" d="M52.028 7.737h-2.733v1.9h2.464v.72h-2.464v1.9h2.733V13h-3.5V7h3.5z"/><path data-name="Path 2985" d="M55.279 13h-.772V7.737h-1.676V7h4.123v.737h-1.675z"/><path data-name="Path 2986" d="M59.938 13V7h.77v6z"/><path data-name="Path 2987" d="M64.128 13h-.771V7.737h-1.676V7H65.8v.737h-1.672z"/><path data-name="Path 2988" d="M73.609 12.225a3.116 3.116 0 01-4.4 0A3.068 3.068 0 0168.326 10a3.064 3.064 0 01.884-2.224 3.1 3.1 0 014.4 0A3.067 3.067 0 0174.493 10a3.072 3.072 0 01-.884 2.225zm-3.83-.5a2.306 2.306 0 003.26 0A2.348 2.348 0 0073.706 10a2.35 2.35 0 00-.667-1.722 2.308 2.308 0 00-3.26 0A2.353 2.353 0 0069.113 10a2.352 2.352 0 00.666 1.722z"/><path data-name="Path 2989" d="M75.575 13V7h.939l2.916 4.668h.033l-.033-1.157V7h.77v6h-.8l-3.05-4.894h-.034l.034 1.157V13z"/></g><path data-name="Path 2990" d="M68.136 21.752A4.253 4.253 0 1072.4 26a4.192 4.192 0 00-4.264-4.248zm0 6.831a2.585 2.585 0 112.4-2.583 2.461 2.461 0 01-2.4 2.583zm-9.314-6.831A4.253 4.253 0 1063.092 26a4.192 4.192 0 00-4.27-4.248zm0 6.831A2.585 2.585 0 1161.223 26a2.461 2.461 0 01-2.401 2.583zm-11.078-5.526v1.8h4.317a3.766 3.766 0 01-.983 2.272 4.42 4.42 0 01-3.334 1.321 4.8 4.8 0 010-9.6A4.6 4.6 0 0151 20.141l1.273-1.273a6.3 6.3 0 00-4.527-1.821 6.606 6.606 0 100 13.211 6.036 6.036 0 004.607-1.853 5.962 5.962 0 001.563-4.221 5.836 5.836 0 00-.1-1.127zm45.308 1.4a3.954 3.954 0 00-3.641-2.706A4.042 4.042 0 0085.4 26a4.162 4.162 0 004.22 4.253 4.232 4.232 0 003.545-1.885l-1.45-.966a2.432 2.432 0 01-2.095 1.176 2.164 2.164 0 01-2.062-1.289l5.687-2.352zm-5.8 1.418a2.333 2.333 0 012.223-2.475 1.648 1.648 0 011.579.9zM82.628 30H84.5V17.5h-1.872zm-3.061-7.3H79.5a2.948 2.948 0 00-2.239-.95 4.257 4.257 0 000 8.506 2.9 2.9 0 002.239-.967h.064v.611c0 1.627-.87 2.5-2.271 2.5a2.354 2.354 0 01-2.143-1.515l-1.627.677a4.053 4.053 0 003.77 2.513c2.191 0 4.044-1.289 4.044-4.43v-7.636h-1.77zm-2.142 5.881a2.587 2.587 0 010-5.156 2.4 2.4 0 012.275 2.596 2.377 2.377 0 01-2.275 2.562zM101.806 17.5h-4.471V30H99.2v-4.736h2.606a3.888 3.888 0 100-7.765zm.048 6.025H99.2v-4.286h2.654a2.143 2.143 0 110 4.285zm11.532-1.8a3.5 3.5 0 00-3.33 1.914l1.657.691a1.769 1.769 0 011.705-.917 1.8 1.8 0 011.962 1.609v.128a4.131 4.131 0 00-1.946-.482c-1.785 0-3.6.981-3.6 2.814a2.889 2.889 0 003.1 2.751 2.633 2.633 0 002.381-1.223h.064v.965h1.8v-4.788c.002-2.22-1.654-3.458-3.793-3.458zm-.226 6.851c-.611 0-1.463-.305-1.463-1.061 0-.965 1.061-1.335 1.978-1.335a3.329 3.329 0 011.7.418 2.262 2.262 0 01-2.215 1.982zM123.743 22l-2.139 5.42h-.064L119.32 22h-2.01l3.329 7.575-1.9 4.214h1.946L125.818 22zm-16.807 8h1.864V17.5h-1.866z" fill="#fff"/><g data-name="Group 1125"><g data-name="Group 1124"><g data-name="Group 1123"><path data-name="Path 2991" d="M10.435 7.547a2 2 0 00-.463 1.4v22.1a2 2 0 00.463 1.4l.074.072 12.378-12.373v-.292L10.509 7.475z" fill="#5bc8f3"/><path data-name="Path 2992" d="M27.013 24.274l-4.126-4.128v-.292l4.128-4.127.093.053L32 18.557c1.4.794 1.4 2.092 0 2.886l-4.892 2.777z" fill="url(#a)"/><path data-name="Path 2993" d="M27.108 24.22L22.887 20 10.435 32.453a1.626 1.626 0 002.076.061l14.6-8.294" fill="url(#b)"/><path data-name="Path 2994" d="M27.108 15.78l-14.6-8.294a1.626 1.626 0 00-2.076.061L22.887 20z" fill="url(#c)"/></g></g></g></svg>